<?xml version="1.0" standalone="no"?><!-- Generator: Gravit.io --><svg xmlns="http://www.w3.org/2000/svg" xmlns:xlink="http://www.w3.org/1999/xlink" style="isolation:isolate" viewBox="0 0 260 401" width="260" height="401"><defs><clipPath id="_clipPath_sVycDoUaFic7872JMMQzK59WqjgM8Rig"><rect width="260" height="401"/></clipPath></defs><g clip-path="url(#_clipPath_sVycDoUaFic7872JMMQzK59WqjgM8Rig)"><rect width="260" height="401" style="fill:rgb(52,58,64)"/><path d=" M 98.047 344.055 L 23.437 133.898 L 23.437 133.898 Q 22.266 132.336 18.359 127.648 L 18.359 127.648 L 18.359 127.648 Q 14.453 122.961 11.914 117.687 L 11.914 117.687 L 11.914 117.687 Q 9.375 112.414 9.57 107.336 L 9.57 107.336 L 9.57 107.336 Q 9.766 102.258 16.797 99.914 L 16.797 99.914 L 16.797 99.914 Q 19.531 98.742 24.805 98.742 L 24.805 98.742 L 24.805 98.742 Q 30.078 98.742 30.469 99.914 L 30.469 99.914 L 98.047 262.805 L 98.047 262.805 Q 101.172 237.023 106.445 210.461 L 106.445 210.461 L 106.445 210.461 Q 111.719 183.898 120.312 158.312 L 120.312 158.312 L 120.312 158.312 Q 128.906 132.727 141.602 109.094 L 141.602 109.094 L 141.602 109.094 Q 154.297 85.461 172.656 65.93 L 172.656 65.93 L 172.656 65.93 Q 178.125 59.68 187.109 50.5 L 187.109 50.5 L 187.109 50.5 Q 196.094 41.32 204.883 32.727 L 204.883 32.727 L 204.883 32.727 Q 213.672 24.133 220.117 17.883 L 220.117 17.883 L 220.117 17.883 Q 226.562 11.633 226.953 11.633 L 226.953 11.633 L 247.266 11.633 L 247.266 11.633 Q 250.391 16.32 245.898 21.789 L 245.898 21.789 L 245.898 21.789 Q 241.406 27.258 234.57 32.141 L 234.57 32.141 L 234.57 32.141 Q 227.734 37.023 221.094 40.734 L 221.094 40.734 L 221.094 40.734 Q 214.453 44.445 213.281 45.617 L 213.281 45.617 L 213.281 45.617 Q 182.031 76.867 164.062 110.07 L 164.062 110.07 L 164.062 110.07 Q 146.094 143.273 136.328 179.406 L 136.328 179.406 L 136.328 179.406 Q 126.562 215.539 123.242 254.797 L 123.242 254.797 L 123.242 254.797 Q 119.922 294.055 118.359 337.414 L 118.359 337.414 L 115.625 338.977 L 115.625 338.977 Q 113.672 339.758 111.523 340.93 L 111.523 340.93 L 111.523 340.93 Q 109.375 342.102 107.422 342.883 L 107.422 342.883 L 107.422 342.883 Q 105.469 343.664 104.687 344.055 L 104.687 344.055 L 104.687 344.055 Q 103.516 344.836 100.977 344.836 L 100.977 344.836 L 100.977 344.836 Q 98.437 344.836 98.047 344.055 L 98.047 344.055 Z " fill="rgb(255,0,0)"/></g></svg>